# xmcd
#
# Track frame offsets: 
#        150
#        15062
#        32035
#        48962
#        74385
#        86285
#        100417
#        120720
#        135955
#        151307
#        163050
#        179297
#
# Disc length: 2582 seconds
#
# Revision: 1
# Processed by: cddbd v1.5.2PL0 Copyright (c) Steve Scherf et al.
# Submitted via: ExactAudioCopy v1.0b3
#
DISCID=890a140c
DTITLE=S. E. Willis - Airn Beats Narin
DYEAR=1999
DGENRE=Blues
TTITLE0=Skate Scram
TTITLE1=Airn Beats Narin
TTITLE2=Macher
TTITLE3=Drinking Blues
TTITLE4=Good To Go Boogie
TTITLE5=Past Tense
TTITLE6=Love Monkey
TTITLE7=Baby Why
TTITLE8=High Octane Gas
TTITLE9=Fool For Life
TTITLE10=Gonna Leave This World
TTITLE11=Good Food, Good Fun
EXTD=
EXTT0=
EXTT1=
EXTT2=
EXTT3=
EXTT4=
EXTT5=
EXTT6=
EXTT7=
EXTT8=
EXTT9=
EXTT10=
EXTT11=
PLAYORDER=
